<svg width="24" height="24" viewBox="0 0 24 24" fill="none" xmlns="http://www.w3.org/2000/svg">
<path d="M11.9999 23.9738C18.6025 23.9738 23.9738 18.6026 23.9738 12.0003C23.9738 5.39795 18.6025 0.0263672 11.9999 0.0263672C5.39754 0.0263672 0.0263672 5.39801 0.0263672 12.0003C0.0263672 18.6026 5.39754 23.9738 11.9999 23.9738ZM11.9999 1.91543C17.5608 1.91543 22.0852 6.43939 22.0852 12.0003C22.0852 17.5607 17.5608 22.0853 11.9999 22.0853C6.43934 22.0853 1.91543 17.5607 1.91543 12.0003C1.91537 6.43939 6.43928 1.91543 11.9999 1.91543Z" fill="#7300FF"/>
<path d="M7.08256 17.0105C7.29268 17.2169 7.56596 17.3193 7.8386 17.3193C8.11844 17.3193 8.39758 17.2115 8.60916 16.9963L11.9997 13.5409L15.391 16.9963C15.6024 17.2115 15.8817 17.3193 16.1613 17.3193C16.4342 17.3193 16.7071 17.217 16.9172 17.0105C17.3429 16.593 17.349 15.9094 16.9314 15.4841L13.5121 12.0005L16.9314 8.51648C17.349 8.0912 17.3428 7.40788 16.9172 6.99029C16.4923 6.57292 15.809 6.57907 15.3909 7.00435L11.9996 10.4597L8.60911 7.00435C8.19104 6.57872 7.50772 6.57292 7.08245 6.99029C6.65717 7.40788 6.65067 8.0912 7.06862 8.51648L10.4876 12.0005L7.06862 15.4841C6.65079 15.9094 6.65729 16.593 7.08256 17.0105Z" fill="#7300FF"/>
</svg>
