<svg width="265" height="48" viewBox="0 0 265 48" fill="none" xmlns="http://www.w3.org/2000/svg">
<path d="M2.2017 39V9.90909H9.23295V33.2898H21.3352V39H2.2017ZM73.6064 9.90909V39H66.5751V9.90909H73.6064ZM194.573 9.90909V39H188.607L177.03 22.2102H176.845V39H169.814V9.90909H175.865L187.314 26.6705H187.556V9.90909H194.573ZM256.318 18.6307C256.224 17.589 255.802 16.7794 255.054 16.2017C254.315 15.6146 253.26 15.321 251.887 15.321C250.977 15.321 250.22 15.4394 249.614 15.6761C249.008 15.9129 248.553 16.2396 248.25 16.6562C247.947 17.0634 247.791 17.5322 247.781 18.0625C247.762 18.4981 247.848 18.8816 248.037 19.2131C248.236 19.5445 248.52 19.8381 248.889 20.0938C249.268 20.34 249.723 20.5578 250.253 20.7472C250.783 20.9366 251.38 21.1023 252.043 21.2443L254.543 21.8125C255.982 22.125 257.251 22.5417 258.35 23.0625C259.458 23.5833 260.386 24.2036 261.134 24.9233C261.891 25.643 262.464 26.4716 262.852 27.4091C263.241 28.3466 263.44 29.3977 263.449 30.5625C263.44 32.3996 262.976 33.9763 262.057 35.2926C261.138 36.6089 259.817 37.6174 258.094 38.3182C256.38 39.0189 254.311 39.3693 251.887 39.3693C249.453 39.3693 247.332 39.0047 245.523 38.2756C243.714 37.5464 242.308 36.4384 241.304 34.9517C240.3 33.465 239.784 31.5852 239.756 29.3125H246.489C246.546 30.25 246.797 31.0312 247.242 31.6562C247.687 32.2812 248.297 32.7547 249.074 33.0767C249.86 33.3987 250.769 33.5597 251.801 33.5597C252.748 33.5597 253.553 33.4318 254.216 33.1761C254.888 32.9205 255.404 32.5653 255.764 32.1108C256.124 31.6562 256.309 31.1354 256.318 30.5483C256.309 29.9991 256.138 29.5303 255.807 29.142C255.476 28.7443 254.964 28.4034 254.273 28.1193C253.591 27.8258 252.72 27.5559 251.659 27.3097L248.619 26.5994C246.101 26.0218 244.117 25.089 242.668 23.8011C241.219 22.5038 240.499 20.7519 240.509 18.5455C240.499 16.7462 240.982 15.1695 241.958 13.8153C242.933 12.4612 244.282 11.4053 246.006 10.6477C247.729 9.89015 249.694 9.51136 251.901 9.51136C254.154 9.51136 256.11 9.89489 257.767 10.6619C259.434 11.4195 260.726 12.4848 261.645 13.858C262.564 15.2311 263.032 16.822 263.051 18.6307H256.318Z" fill="white"/>
<path d="M145.239 14.7758C144.878 14.6338 144.494 14.5614 144.106 14.5625H144.065C142.016 14.593 139.719 16.5115 138.514 19.4131C137.068 22.8845 137.734 26.4362 140.011 27.3492C140.371 27.4912 140.756 27.5636 141.143 27.5625C143.202 27.5625 145.531 25.6328 146.746 22.7119C148.181 19.2405 147.506 15.6888 145.239 14.7758Z" stroke="white" stroke-width="4" stroke-miterlimit="10"/>
<path d="M132.022 28.3222C129.198 23.6371 127.98 21.875 124.75 21.875C121.52 21.875 120.291 23.6483 117.468 28.3222C115.051 32.3197 110.166 32.6528 108.947 36.048C108.7 36.6699 108.575 37.3339 108.581 38.0031C108.581 40.7646 110.694 43 113.294 43C116.523 43 120.921 40.4213 124.76 40.4213C128.599 40.4213 132.977 43 136.206 43C138.806 43 140.909 40.7656 140.909 38.0031C140.911 37.3333 140.783 36.6693 140.533 36.048C139.314 32.6406 134.439 32.3197 132.022 28.3222Z" stroke="white" stroke-width="4" stroke-miterlimit="10"/>
<path d="M118.302 17.4063C118.438 17.4064 118.574 17.3962 118.708 17.3758C121.065 17.0335 122.537 13.7673 122.003 10.0785C121.5 6.60102 119.389 4 117.183 4C117.047 3.99989 116.911 4.01008 116.776 4.03047C114.419 4.37274 112.947 7.63898 113.482 11.3277C113.984 14.7951 116.095 17.4063 118.302 17.4063Z" stroke="white" stroke-width="4" stroke-miterlimit="10"/>
<path d="M136.015 11.3277C136.549 7.63898 135.078 4.37274 132.721 4.03047C132.586 4.01008 132.45 3.99989 132.314 4C130.107 4 128.001 6.60102 127.497 10.0785C126.963 13.7673 128.435 17.0335 130.792 17.3758C130.926 17.3962 131.062 17.4064 131.198 17.4063C133.405 17.4063 135.516 14.7951 136.015 11.3277Z" stroke="white" stroke-width="4" stroke-miterlimit="10"/>
<path d="M109.492 27.3492C111.766 26.4352 112.43 22.8805 110.987 19.4131C109.772 16.4922 107.446 14.5625 105.39 14.5625C105.002 14.5614 104.618 14.6338 104.258 14.7758C101.984 15.6899 101.319 19.2445 102.763 22.7119C103.977 25.6328 106.304 27.5625 108.36 27.5625C108.747 27.5636 109.131 27.4912 109.492 27.3492Z" stroke="white" stroke-width="4" stroke-miterlimit="10"/>
</svg>
