<svg width="23" height="23" viewBox="0 0 23 23" fill="none" xmlns="http://www.w3.org/2000/svg">
<g clip-path="url(#clip0_59_294)">
<path fill-rule="evenodd" clip-rule="evenodd" d="M6.785 9.315L5.175 10.925L10.35 16.1L21.85 4.6L20.24 2.99L10.35 12.88L6.785 9.315ZM20.7 11.5C20.7 16.56 16.56 20.7 11.5 20.7C6.44 20.7 2.3 16.56 2.3 11.5C2.3 6.44 6.44 2.3 11.5 2.3C12.42 2.3 13.225 2.415 14.03 2.645L15.87 0.805C14.49 0.345 12.995 0 11.5 0C5.175 0 0 5.175 0 11.5C0 17.825 5.175 23 11.5 23C17.825 23 23 17.825 23 11.5H20.7Z" fill="#209924"/>
</g>
<defs>
<clipPath id="clip0_59_294">
<rect width="23" height="23" fill="white"/>
</clipPath>
</defs>
</svg>
